<svg data-v-fde0c5aa="" xmlns="http://www.w3.org/2000/svg" viewBox="0 0 300 300" class="iconAbove"><!----><defs data-v-fde0c5aa=""><!----></defs><rect data-v-fde0c5aa="" fill="transparent" x="0" y="0" width="300px" height="300px" class="logo-background-square"></rect><defs data-v-fde0c5aa=""><!----></defs><g data-v-fde0c5aa="" id="590807b2-0142-4b53-b9b1-c63e957580f6" fill="#2e3034" transform="matrix(1.7720828642094661,0,0,1.7720828642094661,18.972191968333362,158.8936751295468)"><path d="M4.31 14.40L0.58 14.40L0.64 14L1.75 13.74L1.75 6.68L0.62 6.50L0.67 6.12L0.67 6.12Q0.73 6.11 1.00 6.07L1.00 6.07L1.00 6.07Q1.26 6.02 1.35 6.01L1.35 6.01L1.35 6.01Q1.75 5.95 2.08 5.91L2.08 5.91L2.45 5.88L2.45 5.88Q3.08 5.81 3.66 5.81L3.66 5.81L3.66 5.81Q4.25 5.81 4.73 5.89L4.73 5.89L4.73 5.89Q5.78 6.06 6.42 6.64L6.42 6.64L6.42 6.64Q7.05 7.22 7.05 8.29L7.05 8.29L7.05 8.29Q7.05 9.09 6.60 9.73L6.60 9.73L6.60 9.73Q6.14 10.38 5.40 10.72L5.40 10.72L5.40 10.72Q4.66 11.06 3.81 11.06L3.81 11.06L3.81 11.06Q3.54 11.06 3.31 11.04L3.31 11.04L3.21 10.62L3.57 10.60L3.57 10.60Q4.76 10.55 5.34 9.99L5.34 9.99L5.34 9.99Q5.92 9.43 5.92 8.50L5.92 8.50L5.92 8.50Q5.92 7.56 5.32 6.90L5.32 6.90L5.32 6.90Q4.72 6.25 3.51 6.25L3.51 6.25L2.78 6.29L2.78 13.75L4.39 13.95L4.31 14.40ZM10.44 6.29L10.44 9.71L12.38 9.71L12.38 9.71Q12.82 9.48 13.10 9.07L13.10 9.07L13.10 9.07Q13.38 8.65 13.38 8.09L13.38 8.09L13.38 8.09Q13.38 7.25 12.82 6.75L12.82 6.75L12.82 6.75Q12.26 6.25 11.12 6.25L11.12 6.25L11.12 6.25Q10.66 6.25 10.44 6.29L10.44 6.29ZM10.44 10.17L10.44 13.88L12.02 13.88L12.02 13.88Q13.52 13.88 13.95 12.70L13.95 12.70L13.95 12.70Q14.05 12.39 14.05 12.04L14.05 12.04L14.05 12.04Q14.05 11.33 13.58 10.75L13.58 10.75L13.58 10.75Q13.11 10.17 12.07 10.17L12.07 10.17L10.44 10.17ZM11.44 14.40L8.22 14.40L8.29 14L9.43 13.74L9.43 6.68L8.26 6.50L8.33 6.12L8.33 6.12Q8.80 6.04 9.14 6.00L9.14 6.00L9.83 5.91L9.83 5.91Q10.66 5.80 11.53 5.80L11.53 5.80L11.53 5.80Q12.91 5.80 13.64 6.37L13.64 6.37L13.64 6.37Q14.38 6.95 14.38 7.79L14.38 7.79L14.38 7.79Q14.38 8.42 14.02 8.93L14.02 8.93L14.02 8.93Q13.66 9.44 12.97 9.75L12.97 9.75L12.97 9.80L12.97 9.80Q13.96 9.86 14.52 10.46L14.52 10.46L14.52 10.46Q15.09 11.05 15.09 11.80L15.09 11.80L15.09 11.80Q15.09 13.17 13.94 13.86L13.94 13.86L13.94 13.86Q13.05 14.40 11.44 14.40L11.44 14.40ZM19.81 9.92L19.81 9.92L19.81 9.92Q19.81 10.63 20.00 11.39L20.00 11.39L20.00 11.39Q20.18 12.14 20.53 12.73L20.53 12.73L20.53 12.73Q20.88 13.32 21.45 13.66L21.45 13.66L21.45 13.66Q22.03 14 22.68 14L22.68 14L22.68 14Q23.34 14 23.82 13.79L23.82 13.79L23.82 13.79Q24.68 13.41 25.10 12.49L25.10 12.49L25.10 12.49Q25.52 11.56 25.52 10.44L25.52 10.44L25.52 10.44Q25.52 9.31 25.20 8.36L25.20 8.36L25.20 8.36Q24.88 7.41 24.19 6.81L24.19 6.81L24.19 6.81Q23.51 6.21 22.57 6.21L22.57 6.21L22.57 6.21Q20.88 6.21 20.19 7.74L20.19 7.74L20.19 7.74Q19.81 8.60 19.81 9.92ZM20.46 13.98L20.46 13.98L20.46 13.98Q19.59 13.38 19.13 12.38L19.13 12.38L19.13 12.38Q18.67 11.38 18.67 10.11L18.67 10.11L18.67 10.11Q18.67 8.85 19.18 7.83L19.18 7.83L19.18 7.83Q19.69 6.82 20.65 6.25L20.65 6.25L20.65 6.25Q21.62 5.69 22.90 5.69L22.90 5.69L22.90 5.69Q23.78 5.69 24.50 6.04L24.50 6.04L24.50 6.04Q25.22 6.38 25.68 6.99L25.68 6.99L25.68 6.99Q26.65 8.25 26.65 10.13L26.65 10.13L26.65 10.13Q26.65 11.54 25.94 12.70L25.94 12.70L25.94 12.70Q24.79 14.58 22.29 14.58L22.29 14.58L22.29 14.58Q21.32 14.58 20.46 13.98ZM31.91 13.49L31.83 13.49L31.83 13.49Q31.11 14.56 29.93 14.56L29.93 14.56L29.93 14.56Q28.37 14.56 28.37 12.52L28.37 12.52L28.37 9.22L27.38 8.93L27.43 8.57L29.13 8.42L29.24 8.54L29.24 12.23L29.24 12.23Q29.24 13.81 30.42 13.81L30.42 13.81L30.42 13.81Q31.21 13.81 31.83 13.12L31.83 13.12L31.83 9.24L30.75 9.00L30.80 8.59L32.61 8.42L32.71 8.54L32.71 12.87L32.71 12.87Q32.71 13.38 32.85 13.61L32.85 13.61L32.85 13.61Q33.00 13.84 33.39 13.92L33.39 13.92L33.76 14L33.71 14.40L33.71 14.40Q33.24 14.54 32.82 14.54L32.82 14.54L32.82 14.54Q32.40 14.54 32.16 14.27L32.16 14.27L32.16 14.27Q31.91 13.99 31.91 13.58L31.91 13.58L31.91 13.49ZM36.53 14.56L36.53 14.56L36.53 14.56Q35.21 14.56 35.23 12.68L35.23 12.68L35.25 9.13L34.38 9.13L34.38 8.85L34.38 8.85Q35.31 8.44 35.85 7.10L35.85 7.10L36.17 7.10L36.17 8.65L38.10 8.65L38.05 9.15L36.16 9.15L36.14 12.28L36.14 12.28Q36.14 13.11 36.36 13.42L36.36 13.42L36.36 13.42Q36.58 13.73 37.06 13.73L37.06 13.73L37.06 13.73Q37.54 13.73 37.99 13.40L37.99 13.40L38.14 13.28L38.27 13.58L38.27 13.58Q37.96 14.03 37.50 14.30L37.50 14.30L37.50 14.30Q37.04 14.56 36.53 14.56ZM41.51 8.86L41.51 8.86Q40.77 8.86 40.33 9.52L40.33 9.52L40.33 9.52Q39.88 10.18 39.88 11.35L39.88 11.35L39.88 11.35Q39.88 12.52 40.32 13.19L40.32 13.19L40.32 13.19Q40.76 13.87 41.55 13.87L41.55 13.87L41.55 13.87Q41.97 13.87 42.41 13.63L42.41 13.63L42.41 13.63Q42.86 13.39 43.09 13.08L43.09 13.08L43.09 9.71L43.09 9.71Q42.81 9.31 42.38 9.08L42.38 9.08L42.38 9.08Q41.95 8.86 41.51 8.86L41.51 8.86ZM38.94 11.71L38.94 11.71L38.94 11.71Q38.94 10.97 39.19 10.32L39.19 10.32L39.19 10.32Q39.44 9.67 39.85 9.24L39.85 9.24L39.85 9.24Q40.74 8.32 41.85 8.32L41.85 8.32L41.85 8.32Q42.18 8.32 42.56 8.42L42.56 8.42L42.56 8.42Q42.94 8.52 43.11 8.65L43.11 8.65L43.16 8.65L43.07 7.75L43.07 6.53L42.03 6.23L42.09 5.87L43.85 5.72L43.96 5.84L43.96 12.88L43.96 12.88Q43.96 13.60 44.24 13.78L44.24 13.78L44.24 13.78Q44.40 13.87 44.63 13.92L44.63 13.92L44.99 14L44.93 14.41L44.93 14.41Q44.47 14.55 44.05 14.55L44.05 14.55L44.05 14.55Q43.63 14.55 43.40 14.27L43.40 14.27L43.40 14.27Q43.16 13.99 43.16 13.55L43.16 13.55L43.16 13.50L43.09 13.50L43.09 13.50Q42.33 14.54 41.12 14.54L41.12 14.54L41.12 14.54Q40.17 14.54 39.55 13.79L39.55 13.79L39.55 13.79Q38.94 13.05 38.94 11.71ZM48.33 8.89L48.33 8.89Q47.58 8.89 47.16 9.52L47.16 9.52L47.16 9.52Q46.73 10.15 46.73 11.01L46.73 11.01L46.73 11.01Q46.73 11.87 46.94 12.53L46.94 12.53L46.94 12.53Q47.15 13.18 47.61 13.60L47.61 13.60L47.61 13.60Q48.06 14.03 48.73 14.03L48.73 14.03L48.73 14.03Q49.40 14.03 49.81 13.38L49.81 13.38L49.81 13.38Q50.23 12.74 50.23 11.72L50.23 11.72L50.23 11.72Q50.23 10.70 49.76 9.83L49.76 9.83L49.76 9.83Q49.53 9.41 49.16 9.15L49.16 9.15L49.16 9.15Q48.79 8.89 48.33 8.89L48.33 8.89ZM48.42 14.58L48.42 14.58L48.42 14.58Q47.24 14.58 46.50 13.75L46.50 13.75L46.50 13.75Q45.77 12.93 45.77 11.51L45.77 11.51L45.77 11.51Q45.77 10.09 46.60 9.20L46.60 9.20L46.60 9.20Q47.43 8.31 48.62 8.31L48.62 8.31L48.62 8.31Q49.40 8.31 49.99 8.72L49.99 8.72L49.99 8.72Q50.58 9.13 50.89 9.82L50.89 9.82L50.89 9.82Q51.19 10.52 51.19 11.40L51.19 11.40L51.19 11.40Q51.19 12.80 50.40 13.69L50.40 13.69L50.40 13.69Q49.60 14.58 48.42 14.58ZM54.78 8.89L54.78 8.89Q54.04 8.89 53.61 9.52L53.61 9.52L53.61 9.52Q53.18 10.15 53.18 11.01L53.18 11.01L53.18 11.01Q53.18 11.87 53.40 12.53L53.40 12.53L53.40 12.53Q53.61 13.18 54.06 13.60L54.06 13.60L54.06 13.60Q54.52 14.03 55.18 14.03L55.18 14.03L55.18 14.03Q55.85 14.03 56.27 13.38L56.27 13.38L56.27 13.38Q56.68 12.74 56.68 11.72L56.68 11.72L56.68 11.72Q56.68 10.70 56.21 9.83L56.21 9.83L56.21 9.83Q55.99 9.41 55.61 9.15L55.61 9.15L55.61 9.15Q55.24 8.89 54.78 8.89L54.78 8.89ZM54.87 14.58L54.87 14.58L54.87 14.58Q53.69 14.58 52.95 13.75L52.95 13.75L52.95 13.75Q52.22 12.93 52.22 11.51L52.22 11.51L52.22 11.51Q52.22 10.09 53.05 9.20L53.05 9.20L53.05 9.20Q53.88 8.31 55.08 8.31L55.08 8.31L55.08 8.31Q55.85 8.31 56.44 8.72L56.44 8.72L56.44 8.72Q57.03 9.13 57.34 9.82L57.34 9.82L57.34 9.82Q57.65 10.52 57.65 11.40L57.65 11.40L57.65 11.40Q57.65 12.80 56.85 13.69L56.85 13.69L56.85 13.69Q56.05 14.58 54.87 14.58ZM62.07 14.40L58.55 14.40L58.60 14.04L59.66 13.81L59.66 9.22L58.57 8.96L58.63 8.60L60.40 8.40L60.51 8.52L60.42 10.19L60.51 10.19L60.51 10.19Q60.76 9.31 61.21 8.79L61.21 8.79L61.21 8.79Q61.65 8.28 62.08 8.28L62.08 8.28L62.08 8.28Q62.50 8.28 62.71 8.47L62.71 8.47L62.71 8.47Q62.91 8.66 62.91 8.98L62.91 8.98L62.91 8.98Q62.91 9.29 62.49 9.58L62.49 9.58L62.49 9.58Q62.14 9.23 61.74 9.23L61.74 9.23L61.74 9.23Q61.35 9.23 61.01 9.80L61.01 9.80L61.01 9.80Q60.67 10.38 60.55 11.22L60.55 11.22L60.55 13.79L62.13 13.98L62.07 14.40ZM70.59 5.77L70.59 5.77L70.59 5.77Q72.34 5.77 73.35 6.45L73.35 6.45L73.16 8.65L72.71 8.57L72.48 7.11L72.48 7.11Q72.21 6.79 71.63 6.56L71.63 6.56L71.63 6.56Q71.05 6.32 70.31 6.32L70.31 6.32L70.31 6.32Q69.04 6.32 68.24 7.31L68.24 7.31L68.24 7.31Q67.43 8.30 67.43 10.02L67.43 10.02L67.43 10.02Q67.43 11.29 67.95 12.28L67.95 12.28L67.95 12.28Q68.85 13.98 70.82 13.98L70.82 13.98L70.82 13.98Q71.71 13.98 72.30 13.58L72.30 13.58L72.30 11.23L70.67 11.01L70.74 10.60L74.28 10.60L74.21 10.99L73.33 11.20L73.33 13.86L73.33 13.86Q72.67 14.25 71.90 14.41L71.90 14.41L71.90 14.41Q71.13 14.57 70.08 14.57L70.08 14.57L70.08 14.57Q68.35 14.57 67.33 13.41L67.33 13.41L67.33 13.41Q66.31 12.24 66.31 10.36L66.31 10.36L66.31 10.36Q66.31 9.11 66.87 8.06L66.87 8.06L66.87 8.06Q67.42 7.01 68.41 6.39L68.41 6.39L68.41 6.39Q69.40 5.77 70.59 5.77ZM76.47 10.93L76.47 10.93L78.87 10.77L78.87 10.77Q78.91 10.64 78.91 10.12L78.91 10.12L78.91 10.12Q78.91 9.60 78.62 9.24L78.62 9.24L78.62 9.24Q78.33 8.87 77.80 8.87L77.80 8.87L77.80 8.87Q77.27 8.87 76.88 9.40L76.88 9.40L76.88 9.40Q76.49 9.94 76.47 10.93ZM79.93 13.38L80.06 13.69L80.06 13.69Q79.27 14.60 77.94 14.60L77.94 14.60L77.94 14.60Q76.94 14.60 76.21 13.82L76.21 13.82L76.21 13.82Q75.49 13.04 75.49 11.53L75.49 11.53L75.49 11.53Q75.49 10.79 75.72 10.17L75.72 10.17L75.72 10.17Q75.95 9.55 76.34 9.16L76.34 9.16L76.34 9.16Q77.14 8.34 78.17 8.34L78.17 8.34L78.17 8.34Q78.96 8.34 79.42 8.86L79.42 8.86L79.42 8.86Q79.88 9.38 79.88 10.42L79.88 10.42L79.88 10.42Q79.88 10.86 79.76 11.31L79.76 11.31L76.45 11.35L76.45 11.35Q76.48 12.37 76.96 13.12L76.96 13.12L76.96 13.12Q77.43 13.86 78.33 13.86L78.33 13.86L78.33 13.86Q79.22 13.86 79.93 13.38L79.93 13.38ZM81.97 12.98L81.97 12.98L81.97 12.98Q81.97 13.34 82.21 13.63L82.21 13.63L82.21 13.63Q82.44 13.91 82.83 13.91L82.83 13.91L82.83 13.91Q83.23 13.91 83.59 13.68L83.59 13.68L83.59 13.68Q83.96 13.45 84.18 13.13L84.18 13.13L84.18 11.46L84.18 11.46Q83.06 11.65 82.52 12.00L82.52 12.00L82.52 12.00Q81.97 12.35 81.97 12.98ZM81.03 13.24L81.03 13.24L81.03 13.24Q81.03 12.39 81.81 11.82L81.81 11.82L81.81 11.82Q82.58 11.25 84.18 11.11L84.18 11.11L84.18 10.78L84.18 10.78Q84.18 9.82 83.91 9.32L83.91 9.32L83.91 9.32Q83.64 8.82 82.93 8.82L82.93 8.82L82.93 8.82Q82.55 8.82 82.41 8.96L82.41 8.96L82.41 8.96Q82.26 9.11 82.19 9.35L82.19 9.35L82.19 9.35Q82.12 9.59 82.02 10.29L82.02 10.29L82.02 10.29Q81.27 10.29 81.27 9.71L81.27 9.71L81.27 9.71Q81.27 9.37 81.61 9.04L81.61 9.04L81.61 9.04Q81.96 8.71 82.46 8.51L82.46 8.51L82.46 8.51Q82.96 8.32 83.43 8.32L83.43 8.32L83.43 8.32Q84.27 8.32 84.66 8.83L84.66 8.83L84.66 8.83Q85.05 9.34 85.05 10.42L85.05 10.42L85.05 12.82L85.05 12.82Q85.05 13.35 85.18 13.59L85.18 13.59L85.18 13.59Q85.31 13.83 85.74 13.90L85.74 13.90L86.13 13.97L86.07 14.38L86.07 14.38Q85.49 14.52 85.14 14.52L85.14 14.52L85.14 14.52Q84.79 14.52 84.54 14.25L84.54 14.25L84.54 14.25Q84.30 13.98 84.30 13.60L84.30 13.60L84.30 13.50L84.25 13.50L84.25 13.50Q84.09 13.88 83.60 14.22L83.60 14.22L83.60 14.22Q83.11 14.57 82.48 14.57L82.48 14.57L82.48 14.57Q81.84 14.57 81.44 14.21L81.44 14.21L81.44 14.21Q81.03 13.85 81.03 13.24ZM90.23 14.40L86.71 14.40L86.76 14.04L87.82 13.81L87.82 9.22L86.73 8.96L86.79 8.60L88.56 8.40L88.67 8.52L88.57 10.19L88.67 10.19L88.67 10.19Q88.92 9.31 89.36 8.79L89.36 8.79L89.36 8.79Q89.81 8.28 90.23 8.28L90.23 8.28L90.23 8.28Q90.66 8.28 90.86 8.47L90.86 8.47L90.86 8.47Q91.07 8.66 91.07 8.98L91.07 8.98L91.07 8.98Q91.07 9.29 90.64 9.58L90.64 9.58L90.64 9.58Q90.30 9.23 89.90 9.23L89.90 9.23L89.90 9.23Q89.50 9.23 89.16 9.80L89.16 9.80L89.16 9.80Q88.83 10.38 88.71 11.22L88.71 11.22L88.71 13.79L90.28 13.98L90.23 14.40ZM95.99 7.39L95.99 7.39L95.99 7.39Q95.99 8.19 97.03 9.26L97.03 9.26L97.03 9.26Q97.58 8.86 97.86 8.49L97.86 8.49L97.86 8.49Q98.14 8.12 98.14 7.56L98.14 7.56L98.14 7.56Q98.14 7.01 97.84 6.60L97.84 6.60L97.84 6.60Q97.54 6.19 97.05 6.19L97.05 6.19L97.05 6.19Q96.56 6.19 96.28 6.55L96.28 6.55L96.28 6.55Q95.99 6.90 95.99 7.39ZM96.43 10.11L96.43 10.11Q95.83 10.54 95.48 11.02L95.48 11.02L95.48 11.02Q95.14 11.49 95.14 12.15L95.14 12.15L95.14 12.15Q95.14 12.82 95.54 13.31L95.54 13.31L95.54 13.31Q95.94 13.81 96.63 13.81L96.63 13.81L96.63 13.81Q97.73 13.81 98.53 12.44L98.53 12.44L96.50 10.12L96.43 10.11ZM96.14 9.70L96.14 9.70L96.14 9.70Q95.17 8.70 95.17 7.81L95.17 7.81L95.17 7.81Q95.17 6.92 95.77 6.31L95.77 6.31L95.77 6.31Q96.38 5.70 97.22 5.70L97.22 5.70L97.22 5.70Q98.07 5.70 98.56 6.15L98.56 6.15L98.56 6.15Q99.06 6.60 99.06 7.45L99.06 7.45L99.06 7.45Q99.06 8.04 98.63 8.56L98.63 8.56L98.63 8.56Q98.21 9.08 97.41 9.61L97.41 9.61L97.41 9.66L99.07 11.55L100.32 9.47L99.24 9.22L99.29 8.85L102.19 8.85L102.14 9.22L100.98 9.45L99.48 11.96L99.48 11.96Q100.93 13.67 101.83 13.96L101.83 13.96L102.10 14.04L102.03 14.41L102.03 14.41Q101.68 14.53 101.31 14.53L101.31 14.53L101.31 14.53Q100.46 14.53 99.59 13.56L99.59 13.56L98.94 12.84L98.94 12.84Q98.06 14.11 97.15 14.40L97.15 14.40L97.15 14.40Q96.74 14.53 96.27 14.53L96.27 14.53L96.27 14.53Q95.30 14.53 94.71 13.96L94.71 13.96L94.71 13.96Q94.11 13.39 94.11 12.53L94.11 12.53L94.11 12.53Q94.11 11.67 94.64 11.00L94.64 11.00L94.64 11.00Q95.18 10.32 96.14 9.70ZM109.40 7.15L108.08 10.75L110.63 10.75L109.40 7.15ZM108.19 14.40L105.23 14.40L105.28 14L106.27 13.71L109.27 5.88L109.96 5.73L112.71 13.75L113.63 13.96L113.58 14.40L110.42 14.40L110.49 14L111.64 13.71L110.80 11.29L107.89 11.29L107.00 13.75L108.26 13.97L108.19 14.40ZM117.82 9.06L117.82 9.06L117.82 9.06Q117.15 9.06 116.36 9.87L116.36 9.87L116.36 16.35L117.43 16.53L117.36 16.95L114.39 16.95L114.43 16.55L115.47 16.34L115.47 9.24L114.42 8.98L114.47 8.62L116.29 8.43L116.38 8.52L116.31 9.46L116.36 9.46L116.36 9.46Q116.69 9.01 117.18 8.67L117.18 8.67L117.18 8.67Q117.67 8.34 118.28 8.34L118.28 8.34L118.28 8.34Q119.21 8.34 119.77 9.06L119.77 9.06L119.77 9.06Q120.33 9.78 120.33 11.23L120.33 11.23L120.33 11.23Q120.33 12.69 119.48 13.61L119.48 13.61L119.48 13.61Q118.64 14.53 117.33 14.53L117.33 14.53L117.33 14.53Q117.04 14.53 116.63 14.46L116.63 14.46L116.60 13.80L116.60 13.80Q117.00 13.96 117.72 13.96L117.72 13.96L117.72 13.96Q118.43 13.96 118.89 13.34L118.89 13.34L118.89 13.34Q119.36 12.71 119.36 11.63L119.36 11.63L119.36 11.63Q119.36 9.06 117.82 9.06ZM124.51 9.06L124.51 9.06L124.51 9.06Q123.83 9.06 123.05 9.87L123.05 9.87L123.05 16.35L124.11 16.53L124.04 16.95L121.08 16.95L121.12 16.55L122.16 16.34L122.16 9.24L121.11 8.98L121.16 8.62L122.97 8.43L123.06 8.52L123.00 9.46L123.05 9.46L123.05 9.46Q123.38 9.01 123.86 8.67L123.86 8.67L123.86 8.67Q124.35 8.34 124.96 8.34L124.96 8.34L124.96 8.34Q125.89 8.34 126.45 9.06L126.45 9.06L126.45 9.06Q127.01 9.78 127.01 11.23L127.01 11.23L127.01 11.23Q127.01 12.69 126.17 13.61L126.17 13.61L126.17 13.61Q125.32 14.53 124.02 14.53L124.02 14.53L124.02 14.53Q123.73 14.53 123.32 14.46L123.32 14.46L123.29 13.80L123.29 13.80Q123.69 13.96 124.40 13.96L124.40 13.96L124.40 13.96Q125.12 13.96 125.58 13.34L125.58 13.34L125.58 13.34Q126.04 12.71 126.04 11.63L126.04 11.63L126.04 11.63Q126.04 9.06 124.51 9.06ZM128.98 12.98L128.98 12.98L128.98 12.98Q128.98 13.34 129.22 13.63L129.22 13.63L129.22 13.63Q129.45 13.91 129.85 13.91L129.85 13.91L129.85 13.91Q130.24 13.91 130.60 13.68L130.60 13.68L130.60 13.68Q130.97 13.45 131.20 13.13L131.20 13.13L131.20 11.46L131.20 11.46Q130.07 11.65 129.53 12.00L129.53 12.00L129.53 12.00Q128.98 12.35 128.98 12.98ZM128.04 13.24L128.04 13.24L128.04 13.24Q128.04 12.39 128.82 11.82L128.82 11.82L128.82 11.82Q129.59 11.25 131.20 11.11L131.20 11.11L131.20 10.78L131.20 10.78Q131.20 9.82 130.92 9.32L130.92 9.32L130.92 9.32Q130.65 8.82 129.94 8.82L129.94 8.82L129.94 8.82Q129.56 8.82 129.42 8.96L129.42 8.96L129.42 8.96Q129.27 9.11 129.20 9.35L129.20 9.35L129.20 9.35Q129.13 9.59 129.03 10.29L129.03 10.29L129.03 10.29Q128.28 10.29 128.28 9.71L128.28 9.71L128.28 9.71Q128.28 9.37 128.62 9.04L128.62 9.04L128.62 9.04Q128.97 8.71 129.47 8.51L129.47 8.51L129.47 8.51Q129.97 8.32 130.44 8.32L130.44 8.32L130.44 8.32Q131.28 8.32 131.67 8.83L131.67 8.83L131.67 8.83Q132.06 9.34 132.06 10.42L132.06 10.42L132.06 12.82L132.06 12.82Q132.06 13.35 132.19 13.59L132.19 13.59L132.19 13.59Q132.32 13.83 132.75 13.90L132.75 13.90L133.14 13.97L133.08 14.38L133.08 14.38Q132.50 14.52 132.15 14.52L132.15 14.52L132.15 14.52Q131.80 14.52 131.55 14.25L131.55 14.25L131.55 14.25Q131.31 13.98 131.31 13.60L131.31 13.60L131.31 13.50L131.26 13.50L131.26 13.50Q131.10 13.88 130.61 14.22L130.61 14.22L130.61 14.22Q130.12 14.57 129.49 14.57L129.49 14.57L129.49 14.57Q128.85 14.57 128.45 14.21L128.45 14.21L128.45 14.21Q128.04 13.85 128.04 13.24ZM137.24 14.40L133.72 14.40L133.77 14.04L134.83 13.81L134.83 9.22L133.74 8.96L133.80 8.60L135.57 8.40L135.68 8.52L135.58 10.19L135.68 10.19L135.68 10.19Q135.93 9.31 136.37 8.79L136.37 8.79L136.37 8.79Q136.82 8.28 137.25 8.28L137.25 8.28L137.25 8.28Q137.67 8.28 137.87 8.47L137.87 8.47L137.87 8.47Q138.08 8.66 138.08 8.98L138.08 8.98L138.08 8.98Q138.08 9.29 137.66 9.58L137.66 9.58L137.66 9.58Q137.31 9.23 136.91 9.23L136.91 9.23L136.91 9.23Q136.51 9.23 136.18 9.80L136.18 9.80L136.18 9.80Q135.84 10.38 135.72 11.22L135.72 11.22L135.72 13.79L137.29 13.98L137.24 14.40ZM139.86 10.93L139.86 10.93L142.26 10.77L142.26 10.77Q142.31 10.64 142.31 10.12L142.31 10.12L142.31 10.12Q142.31 9.60 142.02 9.24L142.02 9.24L142.02 9.24Q141.73 8.87 141.20 8.87L141.20 8.87L141.20 8.87Q140.66 8.87 140.28 9.40L140.28 9.40L140.28 9.40Q139.89 9.94 139.86 10.93ZM143.32 13.38L143.45 13.69L143.45 13.69Q142.67 14.60 141.34 14.60L141.34 14.60L141.34 14.60Q140.33 14.60 139.61 13.82L139.61 13.82L139.61 13.82Q138.89 13.04 138.89 11.53L138.89 11.53L138.89 11.53Q138.89 10.79 139.12 10.17L139.12 10.17L139.12 10.17Q139.35 9.55 139.73 9.16L139.73 9.16L139.73 9.16Q140.54 8.34 141.57 8.34L141.57 8.34L141.57 8.34Q142.35 8.34 142.81 8.86L142.81 8.86L142.81 8.86Q143.27 9.38 143.27 10.42L143.27 10.42L143.27 10.42Q143.27 10.86 143.16 11.31L143.16 11.31L139.85 11.35L139.85 11.35Q139.88 12.37 140.35 13.12L140.35 13.12L140.35 13.12Q140.83 13.86 141.72 13.86L141.72 13.86L141.72 13.86Q142.62 13.86 143.32 13.38L143.32 13.38ZM147.22 14.40L144.20 14.40L144.27 14.02L145.32 13.80L145.32 6.49L144.25 6.21L144.29 5.86L146.08 5.71L146.20 5.82L146.20 13.80L147.30 14.01L147.22 14.40Z"></path></g><defs data-v-fde0c5aa=""><!----></defs><g data-v-fde0c5aa="" id="1fe8265e-20c8-44bd-85bd-ec1815a80cd4" stroke="none" fill="#488eff" transform="matrix(0.44341452125769265,0,0,0.44341452125769265,127.82927055413103,108.85244720881728)"><path d="M94.813 92.386l-8.411-16.594h1.937c1.308 0 2.198-1.447 1.606-2.614l-8.411-16.593h1.938c1.312 0 2.192-1.447 1.603-2.614l-9.736-19.208c-.654-1.292-2.567-1.273-3.214.004l-6.61 13.046L60.234 37.4h4.368c1.31 0 2.198-1.445 1.608-2.614l-14.599-28.8c-.65-1.286-2.559-1.278-3.211 0l-14.598 28.8c-.592 1.171.294 2.614 1.608 2.614h4.364l-5.279 10.415-6.611-13.046c-.649-1.276-2.561-1.298-3.215-.004l-9.736 19.208c-.593 1.166.295 2.614 1.604 2.614h1.938L10.064 73.18c-.591 1.168.296 2.614 1.605 2.614h1.938L5.195 92.386C4.602 93.556 5.496 95 6.803 95h86.402c.567 0 1.115-.285 1.449-.74.391-.536.46-1.278.159-1.874zm-76.671-17.58c.591-1.167-.296-2.614-1.605-2.614h-1.938L23.01 55.6c.591-1.167-.296-2.614-1.605-2.614H19.47l6.805-13.426 6.2 12.238-.604 1.191h-.734c-1.306 0-2.198 1.445-1.607 2.611l.507 1.004-3.539 6.982c-.591 1.168.296 2.614 1.605 2.614h4.369L19.7 91.4H9.731l8.411-16.594zM23.736 91.4L37.01 65.214c.591-1.167-.296-2.614-1.605-2.614h-4.369L44.31 36.414c.591-1.167-.296-2.614-1.605-2.614h-4.366l11.667-23.018L61.673 33.8h-4.37c-1.308 0-2.198 1.447-1.606 2.614L68.972 62.6h-4.369c-1.308 0-2.198 1.447-1.606 2.614L76.271 91.4H23.736zm56.572 0L67.533 66.2h4.369c1.308 0 2.198-1.447 1.606-2.614l-3.539-6.982.507-1.004c.587-1.167-.298-2.611-1.607-2.611h-.733l-.604-1.192 6.2-12.237 6.805 13.426h-1.935c-1.308 0-2.198 1.447-1.606 2.614l8.411 16.593H83.47c-1.308 0-2.198 1.447-1.606 2.614L90.276 91.4h-9.968zM17.452 29.903C10.586 29.903 5 24.317 5 17.451S10.586 5 17.452 5s12.452 5.586 12.452 12.451-5.585 12.452-12.452 12.452zm0-21.303c-4.881 0-8.852 3.971-8.852 8.851s3.971 8.851 8.852 8.851 8.852-3.971 8.852-8.851S22.333 8.6 17.452 8.6z"></path></g><!----></svg>