<svg data-v-fde0c5aa="" xmlns="http://www.w3.org/2000/svg" viewBox="0 0 300 300" class="iconLeft"><!----><defs data-v-fde0c5aa=""><!----></defs><rect data-v-fde0c5aa="" fill="transparent" x="0" y="0" width="300px" height="300px" class="logo-background-square"></rect><defs data-v-fde0c5aa=""><!----></defs><g data-v-fde0c5aa="" id="da78f731-e26f-439e-96bc-ceb60c305bda" fill="#000000" transform="matrix(5.83756321000038,0,0,5.83756321000038,173.1370591150841,91.91624299857247)"><path d="M0.45 7.55L0.42 7.08L0.42 7.08Q1.02 7.03 1.52 6.94L1.52 6.94L1.52 6.94Q2.02 6.86 2.25 6.80L2.25 6.80L2.25 6.80Q2.48 6.75 2.52 6.75L2.52 6.75L2.52 6.75Q2.77 6.75 2.77 6.97L2.77 6.97L2.77 6.97Q2.77 6.99 2.75 7.33L2.75 7.33L2.75 7.33Q2.73 7.67 2.73 7.76L2.73 7.76L2.73 7.76Q2.84 7.70 3.28 7.41L3.28 7.41L3.28 7.41Q3.72 7.11 4.16 6.93L4.16 6.93L4.16 6.93Q4.59 6.75 5.04 6.75L5.04 6.75L5.04 6.75Q5.18 6.75 5.38 6.78L5.38 6.78L5.38 6.78Q5.59 6.82 5.96 7.01L5.96 7.01L5.96 7.01Q6.34 7.20 6.64 7.50L6.64 7.50L6.64 7.50Q6.93 7.80 7.16 8.43L7.16 8.43L7.16 8.43Q7.39 9.06 7.39 9.88L7.39 9.88L7.39 9.88Q7.39 11.90 6.56 13.05L6.56 13.05L6.56 13.05Q5.73 14.20 4.42 14.20L4.42 14.20L4.42 14.20Q4.12 14.20 3.86 14.16L3.86 14.16L3.86 14.16Q3.60 14.13 3.42 14.06L3.42 14.06L3.42 14.06Q3.25 13.99 3.12 13.92L3.12 13.92L3.12 13.92Q3.00 13.85 2.91 13.74L2.91 13.74L2.91 13.74Q2.83 13.64 2.79 13.57L2.79 13.57L2.79 13.57Q2.74 13.51 2.70 13.42L2.70 13.42L2.70 13.42Q2.66 13.33 2.65 13.31L2.65 13.31L2.65 13.31Q2.63 13.75 2.61 14.52L2.61 14.52L2.61 14.52Q2.59 15.29 2.59 15.48L2.59 15.48L2.59 15.48Q2.60 16.06 2.74 16.22L2.74 16.22L2.74 16.22Q2.88 16.38 3.43 16.48L3.43 16.48L3.43 16.95L0.57 16.95L0.57 16.51L0.57 16.51Q1.02 16.45 1.20 16.31L1.20 16.31L1.20 16.31Q1.39 16.17 1.39 15.90L1.39 15.90L1.39 15.90Q1.37 14.59 1.37 8.30L1.37 8.30L1.37 8.30Q1.37 7.80 1.23 7.67L1.23 7.67L1.23 7.67Q1.08 7.55 0.45 7.55L0.45 7.55ZM2.65 10.95L2.65 10.95L2.65 10.95Q2.65 12.42 2.95 12.97L2.95 12.97L2.95 12.97Q3.25 13.52 4.16 13.52L4.16 13.52L4.16 13.52Q4.93 13.52 5.49 12.73L5.49 12.73L5.49 12.73Q6.05 11.94 6.05 10.30L6.05 10.30L6.05 10.30Q6.05 7.83 4.44 7.83L4.44 7.83L4.44 7.83Q3.72 7.83 2.72 8.34L2.72 8.34L2.72 8.34Q2.72 8.75 2.68 9.64L2.68 9.64L2.68 9.64Q2.65 10.53 2.65 10.95ZM7.92 3.75L7.90 3.29L7.90 3.29Q8.50 3.23 8.99 3.15L8.99 3.15L8.99 3.15Q9.48 3.07 9.72 3.01L9.72 3.01L9.72 3.01Q9.95 2.95 10.00 2.95L10.00 2.95L10.00 2.95Q10.23 2.95 10.23 3.16L10.23 3.16L10.23 3.77L10.18 7.64L10.18 7.64Q11.84 6.73 12.33 6.73L12.33 6.73L12.33 6.73Q13.13 6.73 13.65 6.97L13.65 6.97L13.65 6.97Q14.17 7.21 14.43 7.68L14.43 7.68L14.43 7.68Q14.69 8.15 14.78 8.69L14.78 8.69L14.78 8.69Q14.88 9.23 14.88 10.00L14.88 10.00L14.88 10.00Q14.88 11.89 14.28 12.80L14.28 12.80L14.28 12.80Q14.13 13.01 13.63 13.45L13.63 13.45L13.63 13.45Q13.13 13.90 12.66 14.11L12.66 14.11L12.66 14.11Q12.18 14.32 11.30 14.32L11.30 14.32L11.30 14.32Q10.74 14.32 9.98 14.08L9.98 14.08L9.98 14.08Q9.23 13.83 8.96 13.45L8.96 13.45L8.96 13.45Q8.95 11.73 8.95 9.64L8.95 9.64L8.95 9.64Q8.95 7.55 8.94 6.56L8.94 6.56L8.94 6.56Q8.93 5.57 8.90 5.01L8.90 5.01L8.90 5.01Q8.85 4.07 8.79 3.96L8.79 3.96L8.79 3.96Q8.71 3.77 8.23 3.75L8.23 3.75L8.23 3.75Q8.15 3.75 7.92 3.75L7.92 3.75ZM10.15 11.13L10.15 11.13L10.15 11.13Q10.15 12.60 10.29 12.74L10.29 12.74L10.29 12.74Q10.46 12.95 11.00 13.15L11.00 13.15L11.00 13.15Q11.55 13.36 12.07 13.36L12.07 13.36L12.07 13.36Q12.61 13.36 12.91 13.18L12.91 13.18L12.91 13.18Q13.22 13.01 13.40 12.40L13.40 12.40L13.40 12.40Q13.51 12.03 13.57 11.21L13.57 11.21L13.57 11.21Q13.64 10.40 13.64 10.11L13.64 10.11L13.64 10.11Q13.64 9.39 13.45 8.88L13.45 8.88L13.45 8.88Q13.26 8.37 12.95 8.13L12.95 8.13L12.95 8.13Q12.64 7.90 12.34 7.80L12.34 7.80L12.34 7.80Q12.04 7.70 11.72 7.70L11.72 7.70L11.72 7.70Q11.20 7.70 10.16 8.25L10.16 8.25L10.16 9.17L10.16 9.17Q10.15 10.01 10.15 11.13Z"></path></g><defs data-v-fde0c5aa=""><linearGradient data-v-fde0c5aa="" gradientTransform="rotate(25)" id="7e9dc6ec-4209-4d3b-a51d-7df12464dbfc" x1="0%" y1="0%" x2="100%" y2="0%"><stop data-v-fde0c5aa="" offset="0%" stop-color="#006678" stop-opacity="1"></stop><stop data-v-fde0c5aa="" offset="100%" stop-color="#4FA8FF" stop-opacity="1"></stop></linearGradient></defs><g data-v-fde0c5aa="" id="dd0fb7bc-05c4-43a8-af29-93951c9a5c20" stroke="none" fill="url(#7e9dc6ec-4209-4d3b-a51d-7df12464dbfc)" transform="matrix(0.09035023514521201,0,0,0.09035023514521201,33.99361325802674,81.52824883041487)"><path d="M733.864 375.851c-24.867-9.086-50.802-.683-52.13-.238-4.662 1.554-7.176 6.583-5.634 11.251 1.542 4.666 6.582 7.2 11.25 5.672.311-.103 31.13-9.926 51.771 6.372a8.906 8.906 0 0 0 5.524 1.916 8.913 8.913 0 0 0 8.539-11.477c-.022-.081-2.366-8.277-1.16-18.065 1.556-12.615 8.285-21.872 20.003-27.514a8.915 8.915 0 1 0-7.733-16.065c-17.291 8.325-27.653 22.64-29.966 41.396a63.88 63.88 0 0 0-.464 6.752zM657.691 307.979c-4.659 1.553-7.17 6.579-5.634 11.243 1.537 4.666 6.569 7.208 11.245 5.681.232-.076 23.521-7.463 38.918 4.692a8.913 8.913 0 0 0 10.536.376 8.917 8.917 0 0 0 3.528-9.936c-.018-.059-1.732-6.23-.848-13.419 1.155-9.359 5.949-15.947 14.658-20.14a8.917 8.917 0 0 0-7.734-16.067c-17.922 8.63-23.997 23.797-24.942 36.936-19.379-5.968-38.695.29-39.727.634zM663.007 257.968c.107-.035 10.867-3.381 17.545 1.892a8.91 8.91 0 0 0 10.536.376 8.917 8.917 0 0 0 3.528-9.936c-.006-.024-.695-2.662-.323-5.685.463-3.748 2.238-6.175 5.761-7.872a8.912 8.912 0 0 0 4.165-11.9 8.913 8.913 0 0 0-11.898-4.165c-9.396 4.523-13.686 11.844-15.25 18.94-10.152-1.661-19.102 1.233-19.647 1.416-4.67 1.557-7.223 6.615-5.666 11.286 1.556 4.672 6.576 7.204 11.249 5.648z"></path><path d="M1369.98 493.777c-34.17-80.786-83.084-153.336-145.385-215.637-62.301-62.3-134.852-111.215-215.638-145.384-83.644-35.378-172.49-53.317-264.07-53.317-91.581 0-180.427 17.938-264.071 53.317-80.785 34.169-153.336 83.083-215.636 145.384-62.3 62.301-111.215 134.852-145.384 215.637-35.378 83.644-53.317 172.49-53.317 264.071 0 91.58 17.938 180.427 53.317 264.07 34.169 80.786 83.084 153.337 145.384 215.638 62.301 62.301 134.852 111.215 215.637 145.385 83.644 35.378 172.49 53.316 264.071 53.316 91.58 0 180.427-17.938 264.07-53.316 80.786-34.17 153.337-83.084 215.638-145.385s111.215-134.852 145.385-215.638c35.378-83.644 53.316-172.49 53.316-264.07 0-91.581-17.939-180.427-53.317-264.071zM744.888 99.438c300.656 0 554.892 202.566 633.395 478.387l-240.808-226.091a9.999 9.999 0 0 0-11.74-1.429L751.922 560.179l-337.141-190.12a10.003 10.003 0 0 0-9.451-.201L136.163 506.944C235.018 267.992 470.636 99.438 744.888 99.438zm0 1316.819c-54 0-106.5-6.542-156.755-18.862 19.04-1.6 30.836-5.809 42.319-9.91 13.559-4.843 26.367-9.417 52.633-9.417s39.073 4.574 52.633 9.417c14.567 5.203 29.63 10.583 59.361 10.583s44.793-5.38 59.359-10.583c13.56-4.843 26.367-9.417 52.633-9.417 19.446 0 31.514 2.508 41.974 5.775-64.303 21.023-132.923 32.414-204.157 32.414zm234.67-43.235c-4.604-1.339-8.834-2.84-13.126-4.372-14.567-5.203-29.63-10.583-59.361-10.583-29.73 0-44.793 5.38-59.359 10.583-13.56 4.843-26.367 9.417-52.633 9.417-26.267 0-39.074-4.574-52.634-9.417-14.567-5.203-29.629-10.583-59.36-10.583s-44.793 5.38-59.36 10.583c-13.559 4.843-26.367 9.417-52.632 9.417-26.266 0-39.074-4.574-52.633-9.417-11.55-4.126-23.419-8.359-42.658-9.938a658.06 658.06 0 0 1-96.276-53.393c10.717-2.044 18.909-4.966 26.943-7.836 13.559-4.843 26.366-9.417 52.631-9.417 26.266 0 39.074 4.574 52.633 9.417 14.567 5.203 29.63 10.583 59.36 10.583s44.793-5.38 59.36-10.583c13.559-4.843 26.367-9.417 52.633-9.417s39.073 4.574 52.633 9.417c14.567 5.203 29.63 10.583 59.361 10.583s44.793-5.38 59.359-10.583c13.56-4.843 26.367-9.417 52.633-9.417 26.267 0 39.075 4.574 52.635 9.417 14.566 5.203 29.63 10.583 59.36 10.583 29.732 0 44.797-5.38 59.364-10.583 13.561-4.843 26.369-9.417 52.637-9.417 1.261 0 2.485.012 3.686.032-47.316 34.884-99.449 63.586-155.196 84.924zm178.716-103.097c-7.595-1.148-16.435-1.857-27.208-1.857-29.732 0-44.796 5.38-59.363 10.582-13.561 4.844-26.369 9.418-52.638 9.418-26.267 0-39.074-4.574-52.634-9.417-14.567-5.203-29.63-10.583-59.361-10.583-29.73 0-44.793 5.38-59.359 10.583-13.56 4.843-26.367 9.417-52.633 9.417-26.267 0-39.074-4.574-52.634-9.417-14.567-5.203-29.629-10.583-59.36-10.583s-44.793 5.38-59.36 10.583c-13.559 4.843-26.367 9.417-52.632 9.417-26.266 0-39.074-4.574-52.633-9.417-14.566-5.203-29.629-10.583-59.36-10.583-29.729 0-44.792 5.38-59.358 10.583-12.166 4.346-23.734 8.472-44.954 9.274a663.975 663.975 0 0 1-97.895-88.561c12.866 1.698 21.693 4.847 30.858 8.12 14.566 5.203 29.629 10.583 59.359 10.583 29.729 0 44.792-5.38 59.358-10.583 13.559-4.843 26.366-9.417 52.631-9.417 26.266 0 39.074 4.574 52.633 9.417 14.567 5.203 29.63 10.583 59.36 10.583s44.793-5.38 59.36-10.583c13.559-4.843 26.367-9.417 52.633-9.417s39.073 4.574 52.633 9.417c14.567 5.203 29.63 10.583 59.361 10.583s44.793-5.38 59.359-10.583c13.56-4.843 26.367-9.417 52.633-9.417 26.267 0 39.075 4.574 52.635 9.417 14.566 5.203 29.63 10.583 59.36 10.583 29.732 0 44.797-5.38 59.364-10.583 13.561-4.843 26.369-9.417 52.637-9.417s39.076 4.574 52.637 9.417c9.532 3.404 19.298 6.877 33.228 8.876a664.111 664.111 0 0 1-58.657 53.565zm75.964-72.047c-20.494-.905-31.863-4.961-43.809-9.228-14.567-5.203-29.631-10.583-59.363-10.583s-44.796 5.38-59.363 10.582c-13.561 4.844-26.369 9.418-52.638 9.418-26.267 0-39.074-4.574-52.634-9.417-14.567-5.203-29.63-10.583-59.361-10.583-29.73 0-44.793 5.38-59.359 10.583-13.56 4.843-26.367 9.417-52.633 9.417-26.267 0-39.074-4.574-52.634-9.417-14.567-5.203-29.629-10.583-59.36-10.583s-44.793 5.38-59.36 10.583c-13.559 4.843-26.367 9.417-52.632 9.417-26.266 0-39.074-4.574-52.633-9.417-14.566-5.203-29.629-10.583-59.36-10.583-29.729 0-44.792 5.38-59.358 10.583-13.559 4.843-26.366 9.417-52.631 9.417-26.266 0-39.073-4.574-52.632-9.417-14.016-5.006-28.498-10.174-56.056-10.558a662.377 662.377 0 0 1-47.319-64.468l1110.718-4.94a662.533 662.533 0 0 1-67.583 89.194zM789.377 942.741l18.327 28.759H696.296l18.855-29.586a8.174 8.174 0 0 0 3.575.827h70.651zm-64.28-16.433L752 884.094l26.904 42.214h-53.807zm93.081 61.626l65.395 102.61-30.478.136h-.03l-31.256.139a8.187 8.187 0 0 0-5.067-3.727c-24.127-5.934-40.886-21.186-49.812-45.334-6.933-18.758-6.395-36.109-6.389-36.268a8.216 8.216 0 0 0-16.262-1.968c-7.612 37.328-64.715 84.732-65.291 85.207a8.159 8.159 0 0 0-2.153 2.735l-57.155.254 66.143-103.784h132.355zm-66.571 102.746v.451l-50.772.226c12.831-11.862 33.577-32.764 47.164-55.196a115.765 115.765 0 0 0 3.311 10.732c6.948 19.123 18.346 34.007 33.554 44.091l-13.256.059v-.362h-20.001zm562.398-2.05l-70.725.314V857.977l59.02 60.46 14.313-13.971-73.332-75.122v-82.362l57.317 58.714 14.311-13.971-71.628-73.374V634.24l57.317 58.714 14.311-13.971-75.393-77.23a9.997 9.997 0 0 0-14.397.089l-73.551 77.23 14.482 13.793 57.229-60.093v83.742l-71.712 75.3 14.482 13.793 57.229-60.093v85.529l-70.01 73.512 14.482 13.793 55.527-58.304v228.989l-224.188.997V857.976l59.022 60.461 14.311-13.971-73.333-75.121V746.98l57.316 58.716 14.313-13.971-71.629-73.377v-84.11l57.316 58.716 14.313-13.971-75.391-77.23a9.922 9.922 0 0 0-7.218-3.015 9.997 9.997 0 0 0-7.18 3.104l-73.553 77.23 14.482 13.793 57.229-60.091v83.742l-71.712 75.298 14.482 13.793 57.229-60.091v85.527l-70.01 73.512 14.482 13.793 55.527-58.305v230.076l-76.088.339-141.254-221.653 30.459-47.793a8.218 8.218 0 0 0-13.858-8.832L752 853.517l-26.345-41.337a8.217 8.217 0 1 0-13.858 8.832l30.459 47.793-141.387 221.85c-.237.372-.43.758-.601 1.15l-69.854.311v-234.14l59.021 60.461 14.312-13.971-73.333-75.121V746.98l57.316 58.715 14.312-13.971-71.628-73.376v-84.111l57.316 58.715 14.312-13.971-75.391-77.23a9.997 9.997 0 0 0-14.397.089l-73.553 77.23 14.482 13.793 57.23-60.091v83.743l-71.712 75.298 14.482 13.793 57.23-60.091v85.528l-70.01 73.512 14.482 13.793 55.528-58.306v232.162l-235.936 1.049V857.977l59.02 60.46 14.312-13.971-73.332-75.12v-82.364l57.316 58.714 14.312-13.971-71.628-73.375v-84.111l57.316 58.714 14.312-13.971-75.392-77.23a10 10 0 0 0-7.156-3.015h-.062a9.997 9.997 0 0 0-7.179 3.104l-73.552 77.23 14.483 13.793 57.23-60.093v83.742l-71.713 75.3 14.483 13.793 57.23-60.093v85.529l-70.01 73.512 14.482 13.793 55.528-58.305v233.299l-75.737.337c-58.583-98.385-92.264-213.247-92.264-335.831 0-78.219 13.722-153.291 38.865-222.949l284.284-144.784 337.371 190.249a9.997 9.997 0 0 0 9.808.009l372.324-209.038 258.289 242.503c10.385 46.365 15.877 94.558 15.877 144.01.003 120.494-32.542 233.525-89.289 330.783z"></path></g><!----></svg>